<svg width="512" height="108" fill="none" xmlns="http://www.w3.org/2000/svg"><path fill-rule="evenodd" clip-rule="evenodd" d="M511.437 11.867h-18.152l-32.736 32.777-32.485-32.777h-99.898V95.19h12.831V62.602h55.708V49.73h-55.708V24.677h69.916V12.872l40.56 40.814-41.624 41.504h18.152l32.485-32.4 32.236 32.463h18.026L469.562 53.75l41.875-41.882z" fill="#00DBFE"/><path fill-rule="evenodd" clip-rule="evenodd" d="M179.824 39.462a45.743 45.743 0 0 0-5.839-11.646h28.996v67.312h15.961V27.942h32.173V11.867h-80.369v11.817c-8.315-9.44-20.444-15.376-33.953-15.376-15.054 0-28.458 7.407-36.707 18.83C90.875 10.939 73.483 0 53.617 0 23.99 0 0 24.162 0 54s23.99 54 53.617 54c19.866 0 37.258-10.939 46.469-27.138 8.249 11.423 21.584 18.83 36.707 18.83 20.003 0 36.982-13.015 43.031-31.153h-17.253c-5.087 9.069-14.711 15.23-25.778 15.23-16.291 0-29.558-13.361-29.558-29.769 0-16.408 13.267-29.77 29.558-29.77 11.067 0 20.691 6.162 25.778 15.232h17.253zm-88.4 14.331c0 20.977-16.979 38.077-37.807 38.077-20.828 0-37.807-17.1-37.807-38.077 0-20.977 16.979-38.077 37.807-38.077 20.828 0 37.807 17.1 37.807 38.077zM248.361 95.19h-16.838l45.568-88.284 46.068 88.284h-16.65l-11.705-22.228h-35.302L248.361 95.19zm41.561-34.722l-12.957-24.991-11.83 24.99h24.787z" fill="#fff"/></svg>